<svg width="186" height="193" viewBox="0 0 186 193" xmlns="http://www.w3.org/2000/svg" xmlns:xlink="http://www.w3.org/1999/xlink"><title>Dog</title><defs><rect id="a" width="2" height="4" rx="1"/><mask id="e" x="0" y="0" width="2" height="4" fill="#fff"><use xlink:href="#a"/></mask><rect id="b" x="70" width="2" height="4" rx="1"/><mask id="f" x="0" y="0" width="2" height="4" fill="#fff"><use xlink:href="#b"/></mask><rect id="c" x="76" width="2" height="4" rx="1"/><mask id="g" x="0" y="0" width="2" height="4" fill="#fff"><use xlink:href="#c"/></mask><rect id="d" x="6" width="2" height="4" rx="1"/><mask id="h" x="0" y="0" width="2" height="4" fill="#fff"><use xlink:href="#d"/></mask></defs><g fill="none" fill-rule="evenodd"><path d="M165.09 171.884c16.77 2.423 25.342 6.659 16.5 13.73C164.852 199 70.848 189.212 13 189.212c-5.645-9.787 48.543-20.21 94.1-20.21 16.05 0 32.112.4 45.456 1.504l2.809-2.647c2.26-2.131 5.984-2.202 8.314-.16l-.378-.332c1.372 1.202 1.973 2.887 1.79 4.517z" fill="#757A81"/><path d="M81 169c24.945-8.431 38.483-16.725 41-45" stroke="#ACB0B5" stroke-width="9" stroke-linecap="round"/><path d="M45.999 174.125C48.249 181.526 46 193 46 193H19c-14.92 0-8.13-11.877 13-21.95v-8.053c0-3.864 3.142-6.997 7-6.997 3.866 0 7 3.141 7 6.997v11.006l-.001.122z" fill="#CDCFD2"/><path d="M106.001 174.125C103.751 181.526 106 193 106 193h27c14.92 0 8.13-11.877-13-21.95v-8.053c0-3.864-3.142-6.997-7-6.997-3.866 0-7 3.141-7 6.997v11.006l.001.122z" fill="#ACB0B5"/><path d="M74 62c-5.509.314-11.458 1.287-16.748 2.732V43.576c0-2.51-1.714-3.242-3.825-1.21.078-.182-18.486 13.853-18.486 35.06 0 2.714.118 70.727 0 97.32-8.868 4.337-25.397 18.133-8.924 18.133h97.529c16.473 0-.056-13.796-8.924-18.134-.118-26.592 0-94.724 0-97.319 0-21.239-18.577-35.393-18.577-35.393-2.03-1.857-3.734-1.13-3.734 1.537v21.488C86.946 63.302 80.891 62.314 74 62z" fill="#F4F5F5"/><path fill="#DDDFE0" d="M64 145h25v48H64z"/><g transform="translate(37 189)" stroke-width="2"><use stroke="#CECFD1" mask="url(#e)" fill="#CECFD1" xlink:href="#a"/><use stroke="#ADB0B5" mask="url(#f)" fill="#ADB0B5" xlink:href="#b"/><use stroke="#ADB0B5" mask="url(#g)" fill="#ADB0B5" xlink:href="#c"/><use stroke="#CECFD1" mask="url(#h)" fill="#CECFD1" xlink:href="#d"/></g><g fill="#757A81"><path d="M97.327 65.897V55.009c0-2.994 1.839-3.829 3.936-1.706 0 0 6.9 4.573 6.9 14.983 0 .372-.006.741-.018 1.108-3.441-2.1-7.16-3.317-10.818-3.497zM53.164 65.58V54.694c0-2.994-1.838-3.829-3.935-1.706 0 0-6.902 4.573-6.902 14.983 0 .372.007.741.02 1.108 3.44-2.1 7.158-3.316 10.817-3.497z"/></g><g transform="translate(35 119)"><path d="M80 0v13c-20.923 0-29.949 26-40 26-10.051 0-19.077-26-40-26V0h80z" fill="#199CC2"/><path d="M80 0v8H0V0h80z" fill="#3C6A88"/><circle fill="#F0CC36" cx="41" cy="8" r="7"/></g><g transform="translate(3 3.716)"><ellipse stroke-opacity=".8" stroke="#FFF" stroke-width="6" fill-opacity=".42" fill="#D8D8D8" cx="72.728" cy="69.073" rx="72.728" ry="69.073"/><path d="M55.412 13.464c-14.165 2.596-26.3 10.501-33.95 21.414m-3.66 6.132c-1.38 2.757-4.445 13.534-4.711 16.064" stroke="#EDEEEF" stroke-width="2" stroke-linecap="round"/></g><g><g transform="translate(62 91)"><path d="M8 6H6c-3.167 0-6 2.755-6 6 0 3.546 2.84 6.308 6 6h2c1.142 2.407 3.649 4 7 4 2.602 0 5.093-1.569 6-4h1c3.167.308 6-2.447 6-6 0-3.238-2.84-6-6-6h-2c-3.167 0-6 2.755-6 6 0-3.238-2.84-6-6-6z" fill="#CDCFD2"/><rect fill="#F54F4B" x="10" y="10" width="8" height="11" rx="4"/><path d="M7.447 5.307C6.648 2.376 8.465 0 11.507 0h4.987c3.04 0 4.859 2.373 4.059 5.307l-.106.386C19.648 8.624 16.528 11 13.503 11h.994c-3.036 0-6.144-2.373-6.944-5.307l-.106-.386z" fill="#4F5256"/></g><g transform="translate(50 72)"><ellipse fill="#2D2F31" cx="7.832" cy="11.04" rx="3.505" ry="3.324"/><path d="M.327 4.021L8.617.516" stroke="#979797" stroke-width="1.2" stroke-linecap="round"/></g><path d="M97.896 85.676a3.188 3.188 0 0 0 .447-1.628c0-1.84-1.57-3.332-3.508-3.332-1.937 0-3.508 1.492-3.508 3.332 0 .591.163 1.147.447 1.628.967-.556 2.135-.897 3.061-.897.926 0 2.094.34 3.061.897z" fill="#2D2F31"/><path d="M92.327 75.716l9.803 1.979" stroke="#979797" stroke-width="1.2" stroke-linecap="round"/></g></g></svg>
