<svg width="703" height="226" viewBox="0 0 703 226" xmlns="http://www.w3.org/2000/svg"><title>Large_Stars</title><g fill="none" fill-rule="evenodd"><path d="M32.273 25.549h-4.198a1.65 1.65 0 1 0 0 3.302h4.198v4.729a1.65 1.65 0 1 0 3.302 0v-4.73h4.66a1.65 1.65 0 1 0 0-3.302h-4.66V21.42c0-.91-.74-1.656-1.651-1.656a1.65 1.65 0 0 0-1.65 1.656v4.129zM14.41 112.929H9.5a1.994 1.994 0 0 0-2.002 1.999c0 1.111.896 1.999 2.002 1.999h4.91v5.55c0 1.115.896 2 2 2a1.995 1.995 0 0 0 1.998-2v-5.55h5.462a1.994 1.994 0 0 0 2-2 1.995 1.995 0 0 0-2-1.998h-5.462v-4.822a1.994 1.994 0 0 0-1.998-2.001 1.995 1.995 0 0 0-2 2v4.823z" fill="#FD6D6F"/><path d="M79.769 131.32h-5.1a2.14 2.14 0 0 0-2.144 2.137c0 1.188.96 2.137 2.143 2.137h5.1v4.932a2.14 2.14 0 0 0 2.137 2.144c1.188 0 2.136-.96 2.136-2.144v-4.932h5.68a2.14 2.14 0 0 0 2.143-2.137c0-1.188-.96-2.136-2.144-2.136h-5.679v-5.847a2.14 2.14 0 0 0-2.136-2.144c-1.188 0-2.136.96-2.136 2.144v5.847z" fill="#FEB21E"/><path d="M119.976 26.286h-3.799c-.862 0-1.547.693-1.547 1.546 0 .86.693 1.546 1.547 1.546h3.8v3.68c0 .863.691 1.548 1.545 1.548.86 0 1.546-.692 1.546-1.547v-3.68h4.224c.862 0 1.548-.693 1.548-1.547 0-.86-.693-1.546-1.548-1.546h-4.224v-4.342c0-.862-.692-1.548-1.546-1.548-.86 0-1.546.693-1.546 1.548v4.342z" fill="#199CC2"/><path d="M557.972 113.474h-4.554c-1.083 0-1.946.87-1.946 1.942a1.94 1.94 0 0 0 1.946 1.942h4.554v4.399c0 1.083.87 1.946 1.942 1.946a1.94 1.94 0 0 0 1.943-1.946v-4.4h5.075c1.082 0 1.945-.869 1.945-1.941a1.94 1.94 0 0 0-1.945-1.942h-5.075v-5.23c0-1.084-.87-1.947-1.943-1.947a1.94 1.94 0 0 0-1.942 1.946v5.23zM591.68 85.508h-3.101a1.26 1.26 0 0 0-1.264 1.262 1.26 1.26 0 0 0 1.264 1.263h3.102v3.005a1.26 1.26 0 0 0 1.262 1.264 1.26 1.26 0 0 0 1.262-1.264v-3.005h3.45a1.26 1.26 0 0 0 1.263-1.263 1.26 1.26 0 0 0-1.264-1.262h-3.449v-3.546a1.26 1.26 0 0 0-1.262-1.264 1.26 1.26 0 0 0-1.262 1.264v3.546z" fill="#FEB21E"/><path d="M630.361 186.016h-6.204a2.528 2.528 0 0 0-2.527 2.524 2.52 2.52 0 0 0 2.527 2.525h6.204v6.01a2.528 2.528 0 0 0 2.525 2.529 2.52 2.52 0 0 0 2.525-2.528v-6.01h6.898a2.528 2.528 0 0 0 2.528-2.526 2.52 2.52 0 0 0-2.528-2.524h-6.898v-7.092a2.528 2.528 0 0 0-2.525-2.528 2.52 2.52 0 0 0-2.525 2.528v7.092z" fill="#199CC2"/><path d="M648.361 85.016h-6.204a2.528 2.528 0 0 0-2.527 2.524 2.52 2.52 0 0 0 2.527 2.525h6.204v7.01a2.528 2.528 0 0 0 2.525 2.529 2.52 2.52 0 0 0 2.525-2.528v-7.01h6.898a2.528 2.528 0 0 0 2.528-2.526 2.52 2.52 0 0 0-2.528-2.524h-6.898v-6.092a2.528 2.528 0 0 0-2.525-2.528 2.52 2.52 0 0 0-2.525 2.528v6.092z" fill="#FD6D6F"/><g transform="translate(193)" fill="#FFF"><rect x=".157" y="2.754" width="5.802" height="1.262" rx="14"/><rect x=".071" y="2.619" width="5.802" height="1.262" rx="14"/></g><g transform="translate(1 25)" stroke="#F9F9F9" stroke-width="2"><circle cx="104.5" cy="52.5" r="4.5"/><circle opacity=".896" cx="4.5" cy="195.5" r="4.5"/><circle opacity=".898" cx="696.5" cy="111.5" r="4.5"/><circle opacity=".914" cx="166" cy="64" r="3"/><circle opacity=".896" cx="56" cy="170" r="3"/><circle opacity=".898" cx="558" cy="3" r="3"/></g></g></svg>
