<svg width="1225" height="547" viewBox="0 0 1225 547" xmlns="http://www.w3.org/2000/svg"><title>Twinkle_twinkle_little_stars</title><g fill="#FFF" fill-rule="evenodd"><circle cx="157" cy="28" r="1"/><circle cx="406" cy="3" r="1"/><circle cx="511" cy="311.5" r="1"/><circle cx="340" cy="115" r="1"/><circle cx="638.5" cy="28.5" r=".5"/><circle cx="473.5" cy="79.5" r=".5"/><circle cx="492.5" cy="261.5" r=".5"/><circle cx="287.5" cy="96.5" r=".5"/><circle cx="422.5" cy="425" r=".5"/><circle cx="1132.5" cy="455" r=".5"/><circle cx="1159.5" cy="455" r=".5"/><circle cx="1135.5" cy="429" r=".5"/><circle cx="1135.5" cy="429" r=".5"/><circle cx="652.5" cy="455" r=".5"/><circle cx="679.5" cy="455" r=".5"/><circle cx="536.5" cy="71.5" r=".5"/><circle cx="470.5" cy="183.5" r=".5"/><circle cx="829.5" cy="26.5" r=".5"/><circle cx="287.5" cy="96.5" r=".5"/><circle cx=".5" cy="487.5" r=".5"/><circle cx="536.5" cy="71.5" r=".5"/><circle cx="470.5" cy="183.5" r=".5"/><circle cx="829.5" cy="26.5" r=".5"/><circle cx="314.5" cy="96.5" r=".5"/><circle cx="449.5" cy="425" r=".5"/><circle cx="563.5" cy="71.5" r=".5"/><circle cx="477.5" cy="163.5" r=".5"/><circle cx="856.5" cy="26.5" r=".5"/><circle cx="244.5" cy="88.5" r=".5"/><circle cx="349.5" cy="397" r=".5"/><circle cx="493.5" cy="63.5" r=".5"/><circle cx="427.5" cy="175.5" r=".5"/><circle cx="786.5" cy="18.5" r=".5"/><circle cx="322" cy="73" r="1"/><circle cx="571" cy="48" r="1"/><circle cx="485" cy="140" r="1"/><circle cx="864" cy="3" r="1"/><circle cx="290.5" cy="70.5" r=".5"/><circle cx="425.5" cy="399" r=".5"/><circle cx="539.5" cy="45.5" r=".5"/><circle cx="473.5" cy="157.5" r=".5"/><circle cx="832.5" cy=".5" r=".5"/><circle transform="rotate(97 210.5 267.5)" cx="210.5" cy="267.5" r=".5"/><circle fill-opacity=".8" transform="rotate(97 538.5 543.557)" cx="538.5" cy="543.557" r=".5"/><circle cx="314.5" cy="96.5" r=".5"/><circle cx="297.5" cy="518.5" r=".5"/><circle cx="184.5" cy="499.5" r=".5"/><circle cx="563.5" cy="71.5" r=".5"/><circle cx="477.5" cy="163.5" r=".5"/><circle cx="856.5" cy="26.5" r=".5"/><circle transform="rotate(97 237.5 267.5)" cx="237.5" cy="267.5" r=".5"/><circle fill-opacity=".8" transform="rotate(97 565.5 543.557)" cx="565.5" cy="543.557" r=".5"/><circle cx="313.5" cy="258.5" r=".5"/><circle cx="641.443" cy="534.5" r=".5"/><circle cx="968.5" cy="515.5" r=".5"/><circle cx="245.5" cy="466.5" r=".5"/><circle cx="357.5" cy="68.5" r=".5"/><circle fill-opacity=".6" cx="1103.5" cy="466.5" r=".5"/><circle cx="291.5" cy="180.5" r=".5"/><circle cx="450.5" cy="91.5" r=".5"/><circle cx="992.5" cy="21.5" r=".5"/><circle cx="449.5" cy="253.5" r=".5"/><circle fill-opacity=".6" cx="1104.5" cy="510.5" r=".5"/><circle cx="244.5" cy="88.5" r=".5"/><circle cx="349.5" cy="397" r=".5"/><circle cx="493.5" cy="63.5" r=".5"/><circle cx="427.5" cy="175.5" r=".5"/><circle cx="786.5" cy="18.5" r=".5"/><circle transform="rotate(97 137.5 219.5)" cx="137.5" cy="219.5" r=".5"/><circle cx="322" cy="73" r="1"/><circle cx="571" cy="48" r="1"/><circle cx="485" cy="140" r="1"/><circle cx="864" cy="3" r="1"/><circle transform="rotate(97 215 204)" cx="215" cy="204" r="1"/><circle cx="321" cy="235" r="1"/><circle fill-opacity=".7" cx="648.943" cy="511" r="1"/><circle cx="976" cy="492" r="1"/><circle cx="116" cy="70" r="1"/><circle cx="365" cy="45" r="1"/><circle cx="299" cy="157" r="1"/><circle cx="290.5" cy="70.5" r=".5"/><circle cx="425.5" cy="399" r=".5"/><circle cx="539.5" cy="45.5" r=".5"/><circle cx="473.5" cy="157.5" r=".5"/><circle cx="832.5" cy=".5" r=".5"/><circle transform="rotate(97 183.5 201.5)" cx="183.5" cy="201.5" r=".5"/><circle cx="715.5" cy="62.5" r=".5"/><circle cx="517.5" cy="134.5" r=".5"/><circle cx="477.5" cy="289.5" r=".5"/><circle fill-opacity=".6" cx="1132.5" cy="546.5" r=".5"/><circle cx="969.5" cy="85.5" r=".5"/><circle cx="709.5" cy="117.5" r=".5"/><circle cx="55.5" cy="498.5" r=".5"/><circle cx="968.5" cy="235.5" r=".5"/><circle cx="754.522" cy="225.985" r=".5"/><circle transform="rotate(24 694.671 199.004)" cx="694.671" cy="199.004" r=".5"/><circle transform="rotate(24 1005.88 190.882)" cx="1005.88" cy="190.882" r=".5"/><circle transform="rotate(24 712.497 267.146)" cx="712.497" cy="267.146" r=".5"/><circle transform="rotate(24 924.504 263.02)" cx="924.504" cy="263.02" r=".5"/><circle transform="rotate(24 631.12 339.284)" cx="631.12" cy="339.284" r=".5"/><ellipse cx="864.219" cy="53.219" rx=".219" ry=".219"/><ellipse cx="767.365" cy="211.012" rx=".312" ry=".296"/><circle cx="978" cy="155.5" r="1"/><circle cx="1108.5" cy="224" r=".5"/><circle cx="1070.5" cy="281.5" r=".5"/><circle cx="1160.5" cy="381.5" r=".5"/><circle cx="1108.5" cy="224" r=".5"/><circle cx="1070.5" cy="281.5" r=".5"/><circle cx="1135.5" cy="224" r=".5"/><circle cx="1161.5" cy="143.5" r=".5"/><circle cx="1065.5" cy="216" r=".5"/><circle cx="1143" cy="200.5" r="1"/><circle cx="1105" cy="258" r="1"/><circle cx="1111.5" cy="198" r=".5"/><circle cx="1073.5" cy="255.5" r=".5"/><circle cx="1135.5" cy="224" r=".5"/><circle cx="1162.5" cy="113.5" r=".5"/><circle cx="929.5" cy="221" r=".5"/><circle cx="1065.5" cy="216" r=".5"/><circle cx="1143" cy="200.5" r="1"/><circle cx="1012" cy="190" r="1"/><circle cx="937" cy="197.5" r="1"/><circle cx="1111.5" cy="198" r=".5"/><circle cx="1073.5" cy="255.5" r=".5"/><ellipse cx="1149.04" cy="162.393" rx=".713" ry=".677"/><circle transform="rotate(24 958.688 13.099)" cx="958.688" cy="13.099" r=".5"/><circle transform="rotate(24 953.035 236.926)" cx="953.035" cy="236.926" r=".5"/><ellipse cx="1224.639" cy="390.012" rx=".312" ry=".296"/></g></svg>
