<svg width="1415" height="441" viewBox="0 0 1415 441" xmlns="http://www.w3.org/2000/svg"><title>Mountain Copy 2</title><g fill="none" fill-rule="evenodd"><path d="M17 156s105.322-89.104 112.9-89.104c7.579 0 80.949 80.276 102.78 77.886 21.832-2.39 95.89-143.44 106.523-143.919 10.633-.478 53.188 72.333 69.953 74.48 16.766 2.148 60.508-66.107 69.942-65.238 9.433.87 43.205 121.795 63.147 137.025 19.942 15.23 197.551 38.45 372.245.042 174.694-38.406 214.467-39.3 294.293-34.363 79.826 4.937 158.334 57.847 186.217 53.332 27.883-4.516 18.02 274.653 18.02 274.653L0 424.153 17 156z" fill="#0D2B44"/><path d="M409.156 75.344c16.766 2.147 60.508-66.108 69.942-65.239C488.53 10.975 544.246 420 521.3 420c-8.77-67.04-128.91-346.804-112.145-344.656zM232.68 144.782c21.832-2.39 95.89-143.44 106.523-143.919C349.836.385 457.183 438.27 451.547 438.27c-18.383 0-240.698-291.098-218.867-293.488zM17 157s105.322-89.104 112.9-89.104c4.614 0 24.944 71.581 52.471 166.413C185.306 244.419 243.137 421 243.137 421L0 425.153 17 157z" fill="#19354D"/></g></svg>
