<svg width="989" height="676" viewBox="0 0 989 676" xmlns="http://www.w3.org/2000/svg"><title>Planet</title><g fill="none" fill-rule="evenodd"><g fill="#ECEDEF"><path d="M797.618 486.82C735.305 621.67 587.385 700.35 437.27 668.078 287.154 635.803 183.662 503.07 180.963 354.245L797.618 486.82zM803.594 455.352c8.457-19.689 15.103-40.521 19.687-62.333C860.212 217.28 749.299 44.531 575.55 7.176 401.8-30.18 231.01 82.005 194.078 257.746c-4.558 21.687-6.864 43.328-7.078 64.676C270.136 352.147 376.17 382 492.867 407.09c115.486 24.828 223.308 41.098 310.727 48.262z"/></g><g transform="translate(466 528)"><ellipse fill="#CDCFD1" cx="39.744" cy="40.338" rx="39.719" ry="40.174"/><path d="M60.866 7.161A39.205 39.205 0 0 0 39.72 1C17.783 1 0 18.987 0 41.174c0 3.12.351 6.156 1.016 9.07C1.674 25.144 21.998 5 46.973 5c4.842 0 9.51.757 13.893 2.161z" fill="#ACB0B5"/></g><g transform="translate(261 161)"><ellipse fill="#CDCFD2" cx="56.179" cy="59.057" rx="49.407" ry="48.013"/><path d="M13.774 82.677c-5.986-10.533-8.007-23.193-4.67-35.646 6.863-25.613 33.793-40.652 60.15-33.59a50.992 50.992 0 0 1 9.704 3.688c-28.389-5.323-56.56 12.169-64.2 40.676-2.25 8.402-2.479 16.866-.984 24.872z" fill="#ACB0B5"/></g><path d="M624.536 153.563c14.981 0 27.125-12.284 27.125-27.437 0-15.152-12.144-27.436-27.125-27.436-14.98 0-27.125 12.284-27.125 27.436 0 15.153 12.144 27.437 27.125 27.437z" fill="#CDCFD1"/><path d="M636.339 101.447A26.769 26.769 0 0 0 625.125 99C610.145 99 598 111.284 598 126.436c0 3.735.738 7.296 2.074 10.541a34.321 34.321 0 0 1-.074-2.257c0-18.466 14.8-33.436 33.057-33.436 1.108 0 2.203.055 3.282.163z" fill="#ACB0B5"/><path d="M379 523c18.778 0 34-15.446 34-34 0-19.554-15.222-35-34-35s-34 15.446-34 35c0 18.554 15.222 34 34 34z" fill="#CDCFD1"/><path d="M394.507 457.802A33.308 33.308 0 0 0 379 454c-18.778 0-34 15.446-34 35 0 2.83.354 5.587 1.02 8.229C346.716 474.64 364.573 457 386.5 457c2.741 0 5.419.276 8.007.802z" fill="#ACB0B5"/><path d="M713.388 362.308c9.63 0 17.438-7.897 17.438-17.638 0-9.74-7.807-17.637-17.438-17.637-9.63 0-17.438 7.897-17.438 17.637 0 9.741 7.807 17.638 17.438 17.638z" fill="#CDCFD1"/><path d="M722.73 329.71a17.212 17.212 0 0 0-9.292-2.71c-9.63 0-17.438 7.897-17.438 17.638 0 2.092.36 4.1 1.022 5.963-.015-.32-.022-.64-.022-.963C697 338.24 706.135 329 717.404 329c1.843 0 3.628.247 5.326.71z" fill="#ACB0B5"/><path d="M371.259 368.539c6.42 0 11.625-5.265 11.625-11.759 0-6.494-5.205-11.758-11.625-11.758s-11.625 5.264-11.625 11.758c0 6.494 5.204 11.759 11.625 11.759z" fill="#CDCFD1"/><path d="M377.487 346.807a11.475 11.475 0 0 0-6.195-1.807c-6.42 0-11.625 5.264-11.625 11.758 0 1.396.24 2.734.68 3.976-.009-.213-.014-.427-.014-.642 0-7.599 6.09-13.759 13.603-13.759 1.228 0 2.419.165 3.55.474z" fill="#ACB0B5"/><path d="M776.79 148.381c37.996 54.47 60.324 120.986 60.324 192.791 0 184.537-147.469 334.134-329.38 334.134-27.32 0-53.864-3.374-79.248-9.734C636.715 624.347 792.55 457.034 792.55 256.904c0-37.534-5.482-73.913-15.762-108.523z" fill="#DDDFE0"/><path d="M831.542 383.408c100.776 37.453 161.746 74.004 156.408 99.155-9.787 46.115-238.779 36.44-511.467-21.61C203.795 402.904-9.33 318.463.458 272.35c5.564-26.213 81.952-34.4 196.933-25.922a331.983 331.983 0 0 0-2.164 9.514c-4.711 22.218-7.038 44.389-7.152 66.244 83.77 29.656 190.493 59.422 307.92 84.441 116.534 24.83 225.336 41.09 313.542 48.24 8.814-20.085 15.722-41.37 20.453-63.68.55-2.593 1.067-5.186 1.552-7.778z" fill="#CDCFD2"/><g><path d="M788.972 244.658c4.402 0 7.971-3.73 7.971-8.33 0-4.599-3.569-8.328-7.971-8.328-4.403 0-7.972 3.729-7.972 8.329 0 4.6 3.569 8.329 7.972 8.329z" fill="#CDCFD1"/><path d="M793.22 229.28a7.687 7.687 0 0 0-4.248-1.28c-4.403 0-7.972 3.729-7.972 8.329 0 .988.165 1.936.467 2.816-.007-.15-.01-.303-.01-.455 0-5.382 4.176-9.746 9.328-9.746.842 0 1.658.117 2.435.336z" fill="#ACB0B5"/></g></g></svg>
